<svg width="16" height="16" viewBox="0 0 16 16" fill="none" xmlns="http://www.w3.org/2000/svg">
<path d="M1.3845 -1.21037e-07C2.22828 -1.94803e-07 2.819 0.40029 3.40971 0.719747C3.91584 0.959663 4.42266 1.27977 5.01337 1.51968C7.71388 2.87964 10.4144 4.31978 13.1142 5.75992C13.958 6.16021 15.0548 6.55986 15.6455 7.28025C15.814 7.52017 16.0678 7.84027 15.9832 8.24056C15.7301 9.12068 14.5487 9.44079 13.7895 9.84043C11.9328 10.8007 9.99215 11.8406 8.13543 12.8003C7.46013 13.2005 6.44787 13.9203 5.60409 13.3603C5.26644 13.2005 5.09795 13.0402 5.01337 12.8003C4.92879 12.4802 5.01337 12.0805 5.01337 11.7604L5.01337 9.20023C5.01337 8.48048 4.92879 7.92046 5.4356 7.60035C5.60409 7.52017 5.94173 7.44063 6.1948 7.52017C7.03858 7.84027 6.78552 9.28041 6.78552 10.4005L6.78552 11.2799C8.22001 10.5602 9.6545 9.83979 11.089 9.20022C11.5951 8.96031 12.4389 8.72039 12.6081 8.08019C12.7766 7.36044 11.1736 6.80042 10.6675 6.55986L4.84489 3.43966C4.42266 3.19974 3.32581 2.3998 2.6512 2.63972C2.39813 2.71991 2.22897 2.95982 2.22897 3.11955C2.14438 3.43966 2.14438 3.91949 2.14438 4.31978L2.14438 6.87996L2.14438 11.1997C2.14438 11.8399 2.0598 12.6399 2.31287 13.0395C2.90358 13.8395 4.25349 12.3993 4.67572 13.6797C4.76031 13.9998 4.59114 14.3199 4.42266 14.4797C4.08501 14.9601 2.56593 15.6799 1.97522 15.8403C1.80674 15.9198 1.3845 16 1.13144 16C-0.303057 15.7601 0.0345918 13.6002 0.0345916 11.9997L0.0345909 4.07986C0.0345908 2.87964 -0.133892 1.27977 0.372239 0.560019C0.625305 0.159727 0.878371 0.159728 1.3845 -1.21037e-07ZM5.77257 5.1999C7.03858 5.1999 7.12248 6.72023 5.94105 6.96015C5.26576 7.04034 4.75962 6.40013 4.92811 5.84011C5.09727 5.43982 5.35034 5.35963 5.77257 5.1999Z" fill="#00AECD"/>
</svg>
